HIERARCHY
ROOT Hips
{
  OFFSET 0 0 0
  CHANNELS 6 Xposition Yposition Zposition Zrotation Yrotation Xrotation
  JOINT LeftThigh
  {
    OFFSET 8.409438 0 -5.917753
    CHANNELS 3 Zrotation Yrotation Xrotation
    JOINT LeftLeg
    {
      OFFSET 0 0 -42.358652
      CHANNELS 3 Zrotation Yrotation Xrotation
      JOINT LeftFoot
      {
        OFFSET 0 0 -39.357303
        CHANNELS 3 Zrotation Yrotation Xrotation
      }
    }
  }
  JOINT RightThigh
  {
    OFFSET -8.409438 0 -5.917753
    CHANNELS 3 Zrotation Yrotation Xrotation
    JOINT RightLeg
    {
      OFFSET 0 0 -42.358652
      CHANNELS 3 Zrotation Yrotation Xrotation
      JOINT RightFoot
      {
        OFFSET 0 0 -39.357303
        CHANNELS 3 Zrotation Yrotation Xrotation
      }
    }
  }
  JOINT SpineLow
  {
    OFFSET 0 0 4.719101
    CHANNELS 3 Zrotation Yrotation Xrotation
    JOINT SpineMid
    {
      OFFSET 0 0 12.899191
      CHANNELS 3 Zrotation Yrotation Xrotation
      JOINT Chest
      {
        OFFSET 0 0 12.899191
        CHANNELS 3 Zrotation Yrotation Xrotation
        JOINT LeftShoulder
        {
          OFFSET 7.550562 1.41573 9.438202
          CHANNELS 3 Zrotation Yrotation Xrotation
          JOINT LeftArm
          {
            OFFSET 9.155056 0 4.247191
            CHANNELS 3 Zrotation Yrotation Xrotation
            JOINT LeftForearm
            {
              OFFSET 0 0 25.771955
              CHANNELS 3 Zrotation Yrotation Xrotation
              JOINT LeftHand
              {
                OFFSET 0 0 25.197169
                CHANNELS 3 Zrotation Yrotation Xrotation
              }
            }
          }
        }
        JOINT RightShoulder
        {
          OFFSET -7.550562 1.41573 9.438202
          CHANNELS 3 Zrotation Yrotation Xrotation
          JOINT RightArm
          {
            OFFSET -9.155056 0 4.247191
            CHANNELS 3 Zrotation Yrotation Xrotation
            JOINT RightForearm
            {
              OFFSET 0 0 -25.771955
              CHANNELS 3 Zrotation Yrotation Xrotation
              JOINT RightHand
              {
                OFFSET 0 0 -25.197169
                CHANNELS 3 Zrotation Yrotation Xrotation
              }
            }
          }
        }
        JOINT Neck
        {
          OFFSET 0 0 15.101124
          CHANNELS 3 Zrotation Yrotation Xrotation
          JOINT Head
          {
            OFFSET 0 0 11.325843
            CHANNELS 3 Zrotation Yrotation Xrotation
            End Site
            {
              OFFSET 0 0 14.157303
            }
          }
        }
      }
    }
  }
}
MOTION
Frames: 16
Frame Time: 0.0
0.0  93.25843  0.0  -2.236888  9.402457  -112.701394  15.44264  -11.719864  2.406142  -14.572693  3.301161  16.186224  -0.626089  -0.87513  2.279156  16.542045  -22.786502  -87.683201  29.423882  31.991408  95.640711  6.849445  6.157115  4.60348  0.912096  -1.709189  1.386881  2.397804  -4.721754  3.73158  2.397804  -4.721754  3.73158  -16.362514  27.660163  14.220397  113.247419  42.155967  -164.033284  -30.3049  13.219175  80.996238  80.119719  -18.981194  -22.038454  7.302389  -11.993918  28.578036  49.018239  68.429068  -1.979688  -26.278792  -28.595486  -101.264777  48.359783  -6.166804  -23.707737  -6.978726  5.200025  13.804151  -5.351433  3.745314  10.407078  
0.0  93.25843  0.0  -2.564676  9.602585  -114.276911  14.399331  -12.24891  3.963425  -14.138012  3.365756  16.492008  -0.528139  -0.91861  2.274399  17.51117  -23.79557  -90.296155  28.632846  33.547769  91.569003  6.700847  5.446297  3.586446  0.714647  -1.889052  1.40092  1.846583  -5.202505  3.78017  1.846583  -5.202505  3.78017  -15.076573  28.76956  15.169341  113.896524  42.548226  -163.75388  -31.017574  14.392497  80.7223  80.63285  -18.838818  -21.750599  7.748821  -11.3716  29.854691  51.302165  67.846805  -0.052908  -27.200009  -28.090398  -101.044892  48.160891  -6.225781  -23.659216  -6.567714  5.907793  14.706708  -5.067524  4.276435  11.085376  
0.0  93.25843  0.0  -2.895892  9.639963  -115.592894  13.572809  -12.613919  5.221237  -13.6185  3.221279  16.848147  -0.665589  -0.882134  2.17282  18.386338  -24.935607  -92.35725  27.193865  34.632033  86.278957  6.209546  4.563845  2.487203  0.535332  -2.104213  1.353287  1.347941  -5.779291  3.660792  1.347941  -5.779291  3.660793  -13.737118  30.091292  16.376184  114.588334  43.017074  -163.356102  -31.608095  15.324507  80.428723  80.861953  -18.688772  -21.782934  8.016714  -10.570643  31.572291  52.005374  67.840131  0.781706  -27.446229  -28.231105  -101.140809  48.077838  -6.260589  -23.50357  -6.175541  6.756238  15.667552  -4.803971  4.913447  11.806903  
0.0  93.25843  0.0  -3.062495  9.521523  -116.497805  13.096355  -12.788212  6.171012  -13.255914  3.084863  17.012577  -0.67162  -0.859424  2.179496  19.134516  -25.79958  -93.675981  24.381145  35.221862  78.953715  5.601802  3.956685  1.667068  0.505283  -2.244955  1.350108  1.258399  -6.162142  3.652945  1.258399  -6.162142  3.652945  -13.431765  30.810457  16.969986  115.262496  43.472756  -162.903927  -33.754913  15.476473  79.226732  82.322762  -18.927153  -27.194054  7.801052  -10.184006  32.588577  52.393618  67.843236  1.130434  -27.904654  -27.951423  -100.946611  47.826617  -6.378302  -23.366821  -6.163528  7.261814  16.25985  -4.814648  5.287653  12.253467  
0.0  93.25843  0.0  -3.060868  9.324871  -117.106936  12.985704  -12.837231  6.903352  -13.298023  3.032968  16.963664  -0.52958  -0.920624  2.215492  19.714339  -26.414975  -94.125117  19.933647  35.128372  69.119294  5.127277  3.680648  1.201815  0.58336  -2.299677  1.405149  1.464117  -6.317075  3.795627  1.464117  -6.317075  3.795626  -13.96958  30.924337  16.891791  115.774106  43.774474  -162.520877  -34.264052  16.039976  78.72721  82.167079  -19.067098  -27.388906  7.108396  -10.112038  32.797524  52.382578  68.022928  1.249661  -27.896908  -28.065622  -100.929761  47.646395  -6.44094  -23.262707  -6.435629  7.397997  16.480016  -5.02485  5.380522  12.422588  
0.0  93.25843  0.0  -2.964011  9.082009  -117.531735  13.976451  -13.25062  7.816141  -14.500319  3.12749  16.211056  -0.386149  -0.887919  2.288823  20.135205  -27.285943  -93.588643  15.18864  33.929336  57.750218  4.525943  3.388846  1.112491  0.637815  -2.304627  1.461907  1.607571  -6.334988  3.945866  1.607571  -6.334988  3.945866  -14.281359  30.782799  16.797775  116.132537  43.966164  -162.24251  -34.670384  16.452977  78.26134  81.942193  -19.166249  -27.483612  6.735765  -10.290834  32.942788  52.157914  68.299015  1.199626  -27.786745  -28.276719  -100.956482  47.556555  -6.495923  -23.200837  -6.5551  7.380465  16.606649  -5.115564  5.362876  12.518848  
0.0  93.25843  0.0  -2.748354  8.786121  -117.777816  14.04518  -13.165586  8.299116  -14.671497  3.062558  15.945424  -0.260743  -0.910018  2.326797  20.288507  -28.625338  -91.953803  11.316261  31.55115  45.66058  3.898638  3.065886  1.245629  0.612308  -2.285114  1.540598  1.531255  -6.281875  4.164326  1.531255  -6.281875  4.164326  -14.058555  30.614585  16.584809  116.221399  44.102231  -162.12375  -34.969777  16.629343  77.894024  81.760326  -19.106883  -27.480895  6.958766  -10.417315  32.850461  51.553091  68.563069  0.857678  -27.439648  -28.55038  -101.085081  47.466834  -6.609689  -23.255168  -6.348049  7.360383  16.559707  -4.959246  5.35384  12.480953  
0.0  93.25843  0.0  -2.465305  8.515384  -117.768044  14.127137  -13.074973  8.584212  -13.750292  2.546617  16.163776  -1.001395  -0.731919  1.968145  20.060381  -29.835565  -89.688232  7.987344  28.174188  33.563891  3.647514  3.029566  1.432497  0.546286  -2.263879  1.570548  1.348821  -6.220299  4.253001  1.348821  -6.220299  4.253002  -13.548379  30.61457  16.528198  116.630172  44.121899  -162.161697  -34.6324  16.708451  77.865517  81.553373  -18.821784  -27.366831  7.418107  -10.451915  32.873227  50.869785  68.700088  0.411395  -26.823032  -28.89016  -101.369223  47.57474  -6.655524  -23.247822  -5.988999  7.425618  16.518377  -4.691258  5.412853  12.445819  
0.0  93.25843  0.0  -2.183846  8.373515  -117.597486  13.771727  -12.620771  8.63291  -13.264562  2.442427  16.013121  -0.86592  -0.742413  2.047469  19.36823  -30.253531  -87.116726  4.377024  24.750969  22.120422  3.83473  3.134126  2.352749  0.490259  -2.219769  1.579549  1.197262  -6.096362  4.283434  1.197262  -6.096362  4.283434  -13.210854  30.550844  16.513485  116.458162  44.177675  -162.35024  -34.439288  16.384841  77.725405  81.318795  -18.303076  -27.257704  7.74354  -10.514401  32.839293  49.962424  68.763756  -0.288929  -26.254391  -29.043957  -101.633033  47.548942  -6.775844  -23.251699  -5.719041  7.442561  16.404871  -4.487894  5.433812  12.357465  
0.0  93.25843  0.0  -2.010738  8.348343  -117.506277  13.318333  -12.199815  8.665146  -12.558522  2.27488  15.981763  -0.806944  -0.712335  2.089923  18.26084  -28.946267  -84.76519  0.036122  21.375169  13.128207  3.292929  2.986264  2.271357  0.459148  -2.177534  1.626937  1.110394  -5.979694  4.416565  1.110394  -5.979694  4.416565  -13.170174  30.389251  16.379106  116.358192  44.189187  -162.666192  -34.175155  16.432142  77.648836  81.229424  -17.822378  -26.919398  7.755913  -10.51061  32.468295  49.520965  68.734905  -0.649213  -25.720201  -29.150565  -101.926058  47.558753  -6.820317  -23.176767  -5.536116  7.433824  16.185327  -4.347766  5.433993  12.190669  
0.0  93.25843  0.0  -1.98843  8.62964  -117.424899  12.839234  -11.862561  8.589668  -11.923697  2.175712  16.030403  -0.816886  -0.661568  2.115287  17.31557  -25.417071  -83.534667  -4.573108  18.7725  7.31449  3.798036  1.270319  1.020622  0.403572  -2.141808  1.655281  0.957983  -5.878765  4.499524  0.957983  -5.878765  4.499524  -13.398504  30.231918  16.305469  115.911432  44.225263  -163.057948  -34.292445  16.64781  77.407049  81.350813  -17.518436  -26.599869  7.711705  -10.512518  32.109914  49.46879  68.668149  -0.599954  -25.473272  -29.114916  -102.158269  47.518277  -6.829512  -23.201724  -5.555743  7.386607  15.922716  -4.357969  5.400271  11.993998  
0.0  93.25843  0.0  -2.240582  8.911039  -117.26831  12.887963  -11.966132  8.293439  -11.5364  2.082357  16.134647  -0.820434  -0.623285  2.185093  17.176096  -20.509046  -84.042187  -8.728388  16.244597  4.45518  5.371464  0.258974  0.842449  0.383936  -2.182542  1.622713  0.90445  -5.988326  4.411802  0.90445  -5.988326  4.411802  -13.76909  30.368459  16.495439  115.512991  44.246066  -163.398134  -34.19621  16.880626  77.129375  81.655448  -17.331233  -26.194357  7.090029  -10.213179  31.800068  50.059892  68.59811  0.012868  -25.267229  -29.227049  -102.454033  47.474273  -6.847096  -23.313751  -5.83157  7.454095  15.776827  -4.564531  5.445121  11.888542  
0.0  93.25843  0.0  -2.509242  9.26306  -117.030692  13.464166  -12.222718  7.82204  -11.899971  2.196828  16.083617  -0.879307  -0.570059  2.202993  16.943234  -16.387869  -84.388247  -10.689877  14.283084  3.907433  4.897312  0.177984  1.002  0.383122  -2.198738  1.556359  0.907258  -6.031713  4.229948  0.907258  -6.031713  4.229948  -14.217111  30.370645  16.810008  114.827299  44.327065  -163.859023  -34.289933  16.784328  76.82312  82.179351  -16.999425  -25.836549  6.601368  -10.290157  31.635498  50.927238  68.575158  0.997431  -25.376653  -29.236149  -102.625195  47.37944  -6.868551  -23.474148  -6.201676  7.372976  15.76472  -4.839796  5.374863  11.883704  
0.0  93.25843  0.0  -2.65413  9.339164  -116.744583  14.732663  -12.679659  7.29171  -12.753633  2.52073  15.826939  -0.650161  -0.451986  2.264381  16.403978  -13.669366  -84.319237  -12.369743  13.194826  4.834742  3.38227  0.618855  0.687934  0.45702  -2.192941  1.507076  1.114561  -6.019818  4.088163  1.114562  -6.019818  4.088163  -14.721328  30.208419  17.026  114.555407  44.464221  -164.370065  -34.043583  16.628123  76.829933  82.417399  -16.740227  -25.700302  5.826944  -10.264384  31.15174  50.64971  68.761632  1.044335  -24.676197  -29.953382  -103.143544  47.126964  -6.927784  -23.600755  -6.634899  7.153759  15.756027  -5.159072  5.199293  11.881203  
0.0  93.25843  0.0  -2.559449  9.37416  -116.424021  16.194617  -13.096247  6.828073  -13.588665  2.940397  15.568283  -0.963238  -0.577159  2.410134  16.84758  -13.562129  -85.090068  -13.416959  15.069269  7.207657  2.71785  1.072533  1.007833  0.542449  -2.153996  1.478998  1.353433  -5.918119  4.003906  1.353433  -5.918119  4.003906  -15.167938  29.959309  16.965387  114.270652  44.661486  -164.721134  -34.054748  16.519354  76.708796  82.361706  -16.672814  -25.924658  5.49972  -10.439953  30.661554  50.979996  68.6393  1.532906  -24.354265  -30.321334  -103.605486  46.849597  -6.972465  -23.634319  -7.043476  6.985333  15.683463  -5.460384  5.063199  11.830608  
0.0  93.25843  0.0  -2.312324  9.360904  -116.244795  17.282666  -13.354057  6.659223  -14.351115  3.186077  15.47571  -3.154092  0.063849  1.438378  16.97225  -17.112155  -85.551021  -11.940805  18.043378  10.973653  3.356038  1.673232  1.862963  0.610666  -2.090803  1.512424  1.541029  -5.750294  4.090366  1.541029  -5.750295  4.090367  -15.583122  29.65377  16.352478  114.418448  44.71787  -165.04622  -33.80239  16.967276  76.749249  82.438801  -16.601766  -26.645494  5.398859  -10.610733  30.004916  49.732489  68.78932  0.767799  -23.207536  -31.157632  -104.413485  46.672017  -7.003238  -23.570067  -7.276229  6.83571  15.470513  -5.628746  4.947377  11.672677  
